<!-- Lucide icon "package" from lucide-static@0.469.0 (ISC) — https://lucide.dev -->
<svg xmlns="http://www.w3.org/2000/svg" width="24" height="24" viewBox="0 0 24 24" fill="none" stroke="currentColor" stroke-width="2" stroke-linecap="round" stroke-linejoin="round" color="#000">
  <title>Artifacts</title>
  <style>@media (prefers-color-scheme:dark){:root{color:#fff}}</style>
  <path d="M11 21.73a2 2 0 0 0 2 0l7-4A2 2 0 0 0 21 16V8a2 2 0 0 0-1-1.73l-7-4a2 2 0 0 0-2 0l-7 4A2 2 0 0 0 3 8v8a2 2 0 0 0 1 1.73z" />
  <path d="M12 22V12" />
  <path d="m3.3 7 7.703 4.734a2 2 0 0 0 1.994 0L20.7 7" />
  <path d="m7.5 4.27 9 5.15" />
</svg>
